<svg width="415" height="63" viewBox="0 0 415 63" fill="none" xmlns="http://www.w3.org/2000/svg">
<g clip-path="url(#clip0_45_1063)">
<path d="M312.882 48.6891V34.4851H307.602V56.5306H312.044L324.754 42.2108V56.5306H330.034V34.4851H325.601L312.882 48.6891ZM369.422 48.8049V34.4851H364.142V56.5306H368.575L381.285 42.095V56.5306H386.565V34.4851H381.892L369.422 48.8049ZM352.877 43.0574H341.3V34.4851H336.019V56.5306H341.3V47.9049H352.877V56.5306H358.157V34.4851H352.877V43.0574ZM288.604 34.4851L275.947 56.5306H282.182L290.522 41.9702L298.915 56.5306H305.453L292.805 34.4851H288.604ZM410.326 34.4851L397.848 48.8049V34.4851H392.577V56.5306H397.019L409.729 42.095V56.5306H415.009V34.4851H410.326ZM282.129 34.4851H257.547V39.3326H279.31L282.129 34.4851ZM257.547 43.0574V47.9049H274.395L277.214 43.0574H257.547ZM140.971 34.4851H116.389V39.3326H138.152L140.971 34.4851ZM96.7664 29.6376H92.4494L79.8018 51.6831H76.6265V63H81.657V56.5306H107.559V63H112.598V51.6831H109.423L96.7664 29.6376ZM86.0988 51.6831L94.4295 37.1227L102.823 51.6831H86.0988ZM177.611 33.9504C168.799 33.9504 164.598 39.3415 164.598 45.392C164.598 51.6831 168.674 56.8336 177.611 56.8336C181.509 56.8336 190.5 55.0336 190.5 45.392C190.5 39.1009 186.486 33.9504 177.611 33.9504ZM177.549 51.9772C172.456 51.9772 170.298 49.0455 170.298 45.4455C170.298 41.4891 172.759 38.8514 177.549 38.8514C182.945 38.8514 184.8 41.4891 184.8 45.4455C184.8 50.1861 181.268 51.9772 177.549 51.9772ZM147.446 34.4851L134.799 56.5306H141.033L149.373 41.9702L157.766 56.5306H164.304L151.647 34.4851H147.446ZM246.326 56.5306H251.544V34.4851H246.326V56.5306ZM236.372 42.398H228.336V34.4851H223.056V56.5306H227.194H228.336H236.31C239.904 56.5306 243.624 54.5524 243.624 49.3396C243.633 42.5138 238.834 42.398 236.372 42.398ZM236.069 51.8613H228.336V46.9514H236.069C236.97 46.9514 238.352 47.192 238.352 49.4108C238.352 51.4425 237.22 51.8613 236.069 51.8613ZM116.389 43.0574V47.9049H133.238L136.056 43.0574H116.389ZM257.547 56.5306H269.481L272.237 51.6742H257.547V56.5306ZM213.583 43.5297C214.984 42.9326 216.17 41.9792 216.17 39.5821C216.17 35.0287 212.335 34.494 209.632 34.494H195.361V56.5396H209.873C216.527 56.5396 217.909 52.8861 217.909 49.5267C217.9 45.7485 215.76 44.1801 213.583 43.5297ZM200.579 39.1544H209.034C210.292 39.1544 210.836 39.8138 210.836 41.0702C210.836 42.3891 209.998 43.0485 209.034 43.0485H200.579V39.1544ZM209.873 51.8613H200.579V47.1297H209.873C211.371 47.1297 212.45 47.4861 212.45 49.4643C212.45 51.0237 211.79 51.8613 209.873 51.8613ZM116.389 56.5306H128.323L131.079 51.6742H116.389V56.5306Z" fill="black"/>
<path d="M40.9577 39.9208L19.0161 23.6584L13.6555 32.9257L38.7279 43.7703L40.9577 39.9208ZM44.3292 34.0842L25.5272 12.3951L20.2113 21.6L42.144 37.8713L44.3292 34.0842ZM48.3608 27.1158L32.6895 0L26.7759 10.2386L45.5779 31.9277L48.3608 27.1158ZM5.91354 46.3455L0 56.5663H31.3337L34.1166 51.7545L5.91354 46.3455ZM34.0541 56.5663H42.3937L49.7165 43.8861L57.0393 56.5663H65.3789L49.7165 29.4683L34.0541 56.5663ZM37.5505 45.8109L12.4782 34.9753L7.15333 44.1891L35.3563 49.6069L37.5505 45.8109Z" fill="#F9B000"/>
</g>
<defs>
<clipPath id="clip0_45_1063">
<rect width="415" height="63" fill="white"/>
</clipPath>
</defs>
</svg>
