<svg width="320" height="153" viewBox="0 0 320 153" fill="none" xmlns="http://www.w3.org/2000/svg">
<path d="M98.8403 100.031H119.145V106.631H109.485V153H98.8403V100.031Z" fill="black"/>
<path d="M131.189 133.112L133.014 106.631H133.623L135.448 133.112H131.189ZM119.396 153H129.822L130.806 138.933H135.825L136.816 153H147.235L141.683 100.031H124.948L119.396 153Z" fill="black"/>
<path d="M162.49 134.46V144.447C162.49 145.795 163.538 146.182 164.146 146.182C165.15 146.182 165.846 145.358 165.846 144.447V132.114C165.846 130.467 165.539 128.64 161.568 128.64H157.246V122.819H161.744C164.755 122.819 165.846 122.127 165.846 118.87V108.365C165.846 107.454 165.15 106.631 164.146 106.631C163.538 106.631 162.49 106.98 162.49 108.365V117.005H151.839V109.494C151.839 105.801 152.278 100.031 159.743 100.031H168.562C176.027 100.031 176.51 105.807 176.51 109.494V117.96C176.51 123.736 172.451 125.296 169.265 125.165V125.689C176.422 125.514 176.51 130.985 176.51 132.85V143.53C176.51 147.267 176.027 152.994 168.562 152.994H159.743C152.278 152.994 151.839 147.261 151.839 143.53V134.454H162.49V134.46Z" fill="black"/>
<path d="M183.485 100.031H208.15V153H197.499V106.631H194.137V153H183.485V100.031Z" fill="black"/>
<path d="M225.789 129.164V106.631H227.188C228.323 106.631 229.151 107.585 229.151 109.282V126.519C229.151 128.209 228.323 129.17 227.188 129.17H225.789V129.164ZM215.138 153H225.789V134.984H231.899C239.319 134.984 239.802 129.251 239.802 125.52V109.501C239.802 105.808 239.319 100.037 231.899 100.037H215.138V153Z" fill="black"/>
<path d="M260.804 144.447C260.804 145.358 260.107 146.182 259.104 146.182C258.495 146.182 257.448 145.789 257.448 144.447V108.371C257.448 106.98 258.495 106.637 259.104 106.637C260.107 106.637 260.804 107.461 260.804 108.371V144.447ZM246.79 143.53C246.79 147.267 247.273 152.994 254.694 152.994H263.557C270.978 152.994 271.461 147.261 271.461 143.53V109.494C271.461 105.801 270.978 100.031 263.557 100.031H254.694C247.273 100.031 246.79 105.807 246.79 109.494V143.53Z" fill="black"/>
<path d="M306.118 100.031H320V153H309.349V119.787H308.954L303.452 153H294.94L289.483 119.787H289.088V153H278.436V100.031H292.274L299.218 137.28L306.118 100.031Z" fill="black"/>
<path d="M85.0339 27.6106C81.772 13.4185 73.5986 1.86525 72.4758 0C70.6943 2.65127 64.1769 12.8509 60.8648 24.1421C57.2454 36.7747 56.7123 47.9786 57.9605 58.9642C59.2026 69.9935 63.8821 81.3222 63.8821 81.3222C66.3723 87.2236 70.0984 93.6116 72.526 96.737C76.0826 92.1331 84.2623 78.4152 86.8091 60.53C88.2267 50.5363 88.2895 41.8089 85.0339 27.6106ZM72.4758 93.1687C70.8762 90.1743 68.3859 84.485 68.1475 75.6266C68.0848 67.1176 71.5223 59.7814 72.526 58.2593C73.423 59.7814 76.3837 66.1632 76.735 74.8905C76.9734 83.3995 74.1255 90.1306 72.4758 93.1687ZM84.0867 51.7091C83.9675 57.1364 83.3152 62.8694 82.4871 66.2942C82.782 60.3865 82.0731 52.0959 80.7119 45.5831C79.3507 39.114 75.493 28.2594 72.4193 23.2688C69.5777 28.0473 66.0775 37.4234 64.2396 45.5394C62.3954 53.6554 62.3452 63.5119 62.3452 66.4689C61.8559 63.9923 60.6327 55.0965 60.9778 46.1945C61.2663 38.8582 62.9976 31.26 63.9448 27.7853C67.5579 16.1946 71.6478 8.77102 72.4193 7.59822C73.1846 8.77102 78.3408 17.9288 81.013 27.5233C83.6602 37.1178 84.1996 46.3255 84.0867 51.7091Z" fill="black"/>
<path d="M78.0021 100.031H53.2121V116.575C53.2309 116.575 53.2497 116.531 53.2748 116.531C59.1147 110.711 68.5867 110.711 74.4329 116.531C80.2729 122.308 80.2729 131.728 74.4329 137.542C74.4078 137.585 74.3827 137.585 74.3513 137.629C74.32 137.629 74.2886 137.673 74.2635 137.716C68.4361 143.449 60.8209 146.313 53.2058 146.313C45.5593 146.313 37.9065 143.449 32.079 137.629C21.7917 127.423 20.5747 111.578 28.4157 100.031C29.4696 98.465 30.6927 96.9928 32.079 95.6016C37.9127 89.7813 45.5593 86.9179 53.2058 86.9179V47.1489C23.824 47.1489 0 70.8107 0 100.031C0 129.251 23.824 152.956 53.2121 152.956C68.5365 152.956 82.3366 146.487 92.0469 136.2V100.037H78.0021V100.031Z" fill="black"/>
</svg>
