<svg width="21" height="17" viewBox="0 0 21 17" xmlns="http://www.w3.org/2000/svg">
<path d="M1.55984 0.233992L8.87238 8.75798C9.29488 9.22596 9.87988 9.52681 10.5299 9.52681C11.1474 9.52681 11.7649 9.25939 12.1874 8.75798L19.3699 0.367701C19.4349 0.300847 19.4999 0.233992 19.5649 0.200564C19.2399 0.0668548 18.8824 0 18.5574 0H2.46985C2.14485 0 1.81985 0.0668548 1.52734 0.200564L1.55984 0.233992Z" fill="currentColor"/>
<path d="M20.6376 1.20331C20.6051 1.27016 20.5726 1.37045 20.5076 1.4373L13.3251 9.82758C12.6101 10.6298 11.6026 11.1312 10.4975 11.1312C9.42504 11.1312 8.38504 10.6633 7.70253 9.82758L0.390002 1.30359C0.390002 1.27016 0.357502 1.27016 0.357502 1.23674C0.130001 1.63786 0 2.07242 0 2.5404V14.0729C0 15.4768 1.105 16.6133 2.47001 16.6133H18.5251C19.8901 16.6133 20.9951 15.4768 20.9951 14.0729V2.5404C21.0276 2.03899 20.8976 1.60444 20.6376 1.20331Z" fill="currentColor"/>
</svg>
