<svg width="49" height="63" viewBox="0 0 49 63" fill="none" xmlns="http://www.w3.org/2000/svg">
<g id="Frame" clip-path="url(#clip0_43_695)">
<g id="Group">
<g id="Group_2">
<g id="Group_3">
<path id="Vector" d="M7.04399 50.0117C8.49338 48.5408 8.49338 46.156 7.04399 44.6851C5.59459 43.2142 3.24466 43.2142 1.79526 44.6851C0.345865 46.156 0.345866 48.5408 1.79526 50.0117C3.24466 51.4826 5.59459 51.4826 7.04399 50.0117Z" fill="#FF1919"/>
<path id="Vector_2" d="M4.42015 51.8343C1.98329 51.8343 0 49.8227 0 47.3486C0 44.8755 1.98329 42.8628 4.42015 42.8628C6.85701 42.8628 8.8403 44.8755 8.8403 47.3486C8.8403 49.8227 6.8581 51.8343 4.42015 51.8343ZM4.42015 44.3013C2.76396 44.3013 1.41741 45.6678 1.41741 47.3486C1.41741 49.0293 2.76396 50.3959 4.42015 50.3959C6.07634 50.3959 7.42289 49.0293 7.42289 47.3486C7.42289 45.6689 6.07634 44.3013 4.42015 44.3013Z" fill="black"/>
</g>
<g id="Group_4">
<path id="Vector_3" d="M31.6597 0.719238H13.6008C8.67144 0.719238 4.67651 4.77458 4.67651 9.77599V53.224C4.67651 58.2265 8.67253 62.2808 13.6008 62.2808H39.365C44.2943 62.2808 48.2893 58.2254 48.2893 53.224V17.5946L31.6597 0.719238Z" fill="white"/>
<path id="Vector_4" d="M39.365 63H13.6007C8.28871 63 3.96777 58.6149 3.96777 53.224V9.77598C3.96777 4.38508 8.28871 0 13.6007 0H31.6597C31.8472 0 32.0282 0.0752424 32.1612 0.210236L48.7897 17.0867C48.9227 17.2217 48.9968 17.4042 48.9968 17.5957V53.2251C48.9979 58.6149 44.6759 63 39.365 63ZM13.6007 1.43846C9.07046 1.43846 5.38519 5.17845 5.38519 9.77598V53.224C5.38519 57.8216 9.07046 61.5615 13.6007 61.5615H39.365C43.8952 61.5615 47.5805 57.8216 47.5805 53.224V17.8933L31.3664 1.43846H13.6007Z" fill="black"/>
</g>
<g id="Group_5">
<path id="Vector_5" d="M31.6597 0.719238L48.2892 17.5957H35.2065C33.2483 17.5957 31.6597 15.9846 31.6597 13.9962V0.719238Z" fill="#E3E3E3"/>
<path id="Vector_6" d="M48.2914 18.3149C48.2914 18.3149 48.2903 18.3149 48.2892 18.3149H35.2064C32.8601 18.3149 30.9509 16.3774 30.9509 13.9962V0.719233C30.9509 0.428222 31.1232 0.16598 31.3881 0.054223C31.6531 -0.0564275 31.9573 0.00443028 32.1601 0.21024L48.7569 17.0535C48.9052 17.1851 48.999 17.3788 48.999 17.5945C49.0001 17.9918 48.6828 18.3149 48.2914 18.3149ZM32.3683 2.45534V13.9962C32.3683 15.584 33.6407 16.8764 35.2064 16.8764H46.5785L32.3683 2.45534Z" fill="black"/>
</g>
<g id="Group_6">
<path id="Vector_7" d="M4.75826 25.6289C2.55363 25.6289 0.766602 27.4425 0.766602 29.6798V46.6437H0.839653C1.1951 44.7759 2.81313 43.364 4.75826 43.364H44.9561V25.6289H4.75826Z" fill="url(#paint0_linear_43_695)"/>
<path id="Vector_8" d="M0.83962 47.3629H0.766568C0.375144 47.3629 0.0578613 47.0409 0.0578613 46.6437V29.6798C0.0578613 27.0497 2.16654 24.9097 4.75822 24.9097H44.9561C45.3475 24.9097 45.6648 25.2317 45.6648 25.6289V43.364C45.6648 43.7612 45.3475 44.0832 44.9561 44.0832H4.75822C3.18817 44.0832 1.8329 45.2174 1.53524 46.7798C1.47091 47.1183 1.17871 47.3629 0.83962 47.3629ZM4.75822 26.3481C2.9483 26.3481 1.47528 27.843 1.47528 29.6798V44.0024C2.33008 43.1571 3.49564 42.6447 4.75822 42.6447H44.2474V26.3481H4.75822Z" fill="black"/>
</g>
</g>
<g id="Group_7">
<path id="Vector_9" d="M11.4561 30.1445C11.4561 29.8446 11.697 29.6001 11.9794 29.6001H14.9723C17.093 29.6001 18.4886 30.7442 18.4886 32.6242V32.6518C18.4886 34.7088 16.7975 35.7711 14.7979 35.7711H12.5158V38.6591C12.5158 38.9589 12.2749 39.2035 11.9794 39.2035C11.6981 39.2035 11.4561 38.9578 11.4561 38.6591V30.1445ZM14.8382 34.7896C16.3952 34.7896 17.4146 33.9453 17.4146 32.6917V32.664C17.4146 31.3019 16.4083 30.5937 14.8916 30.5937H12.5158V34.7885H14.8382V34.7896Z" fill="white"/>
<path id="Vector_10" d="M20.4216 30.1445C20.4216 29.8446 20.6626 29.6001 20.945 29.6001H23.6828C26.6354 29.6001 28.6753 31.6571 28.6753 34.3404V34.368C28.6753 37.0513 26.6354 39.1349 23.6828 39.1349H20.945C20.6637 39.1349 20.4216 38.8892 20.4216 38.5905V30.1445ZM23.6828 38.1401C26.0586 38.1401 27.5752 36.5058 27.5752 34.3946V34.3669C27.5752 32.2557 26.0586 30.5937 23.6828 30.5937H21.4814V38.139H23.6828V38.1401Z" fill="white"/>
<path id="Vector_11" d="M30.9172 30.1445C30.9172 29.8446 31.1582 29.6001 31.4406 29.6001H37.252C37.5202 29.6001 37.735 29.8181 37.735 30.0903C37.735 30.3625 37.5202 30.5937 37.252 30.5937H31.977V33.9985H36.6479C36.9162 33.9985 37.131 34.2164 37.131 34.4886C37.131 34.7608 36.9162 34.9788 36.6479 34.9788H31.977V38.6557C31.977 38.9556 31.7361 39.2001 31.4406 39.2001C31.1593 39.2001 30.9172 38.9545 30.9172 38.6557V30.1445Z" fill="white"/>
</g>
</g>
</g>
<defs>
<linearGradient id="paint0_linear_43_695" x1="1" y1="18" x2="30" y2="36" gradientUnits="userSpaceOnUse">
<stop stop-color="#FF1919"/>
<stop offset="1" stop-color="#FF1919"/>
<stop offset="1" stop-color="#952C2C"/>
</linearGradient>
<clipPath id="clip0_43_695">
<rect width="49" height="63" fill="white"/>
</clipPath>
</defs>
</svg>
