<svg width="85" height="38" viewBox="0 0 85 38" fill="none" xmlns="http://www.w3.org/2000/svg">
<path d="M42.4802 31.35C59.6551 31.35 73.5781 25.8207 73.5781 19C73.5781 12.1793 59.6551 6.64999 42.4802 6.64999C25.3053 6.64999 11.3823 12.1793 11.3823 19C11.3823 25.8207 25.3053 31.35 42.4802 31.35Z" fill="white"/>
<path d="M42.4802 29.83C48.5865 29.83 53.5367 24.9812 53.5367 19C53.5367 13.0188 48.5865 8.17 42.4802 8.17C36.3739 8.17 31.4237 13.0188 31.4237 19C31.4237 24.9812 36.3739 29.83 42.4802 29.83Z" fill="black"/>
<path d="M51.469 21.2382C51.2905 21.8766 50.8832 22.382 50.2469 22.7468C49.6805 23.0698 49.0288 23.2332 48.2994 23.2332H41.2155C37.0955 23.2332 35.0355 22.0172 35.0355 19.5814C35.0355 18.0196 35.7377 16.796 37.146 15.9068C38.3602 15.143 39.7995 14.7592 41.4716 14.7592H43.3143C44.3928 14.7592 45.3355 14.9226 46.1502 15.2456C47.2365 15.6788 47.8029 16.3324 47.8533 17.214C47.896 18.1032 47.4576 18.8404 46.542 19.4332H42.3328L43.7061 16.7542H41.0216L39.978 19.7562C39.9198 19.931 39.8887 20.0868 39.8887 20.2312C39.8887 20.9038 40.4396 21.242 41.5414 21.242H51.469V21.2382Z" fill="#FF1919"/>
<path d="M42.4802 38C31.2065 38 20.6039 36.0658 12.6161 32.5508C4.48079 28.975 0 24.1604 0 19C0 13.8396 4.48079 9.025 12.6161 5.4492C20.6039 1.9342 31.2065 0 42.4802 0C53.754 0 64.3566 1.9342 72.3444 5.4492C80.4797 9.025 84.9605 13.8396 84.9605 19C84.9605 24.1604 80.4797 28.975 72.3444 32.5508C64.3566 36.0658 53.754 38 42.4802 38ZM42.4802 1.14C19.7 1.14 1.16384 9.1504 1.16384 19C1.16384 28.8496 19.7 36.86 42.4802 36.86C65.2605 36.86 83.7966 28.8496 83.7966 19C83.7966 9.1504 65.2605 1.14 42.4802 1.14Z" fill="white"/>
</svg>
