<svg width="204" height="22" viewBox="0 0 204 22" fill="none" xmlns="http://www.w3.org/2000/svg">
<g id="Group">
<g id="Group_2">
<path id="Vector" d="M11.4423 14.6132C11.4423 16.4182 10.9884 17.7406 10.0844 18.5804C9.18053 19.4202 7.78391 19.842 5.90237 19.842C3.90056 19.842 2.46515 19.4316 1.59227 18.6146C0.719388 17.7976 0.281006 16.3954 0.281006 14.4156V12.945H5.05276V15.814C5.05276 16.5702 5.32433 16.9464 5.86745 16.9464C6.25928 16.9464 6.49205 16.7982 6.56576 16.5056C6.63947 16.213 6.6705 15.4986 6.6705 14.3662V11.2654H3.91995V8.5332H6.6705V5.3412C6.6705 4.7408 6.6317 4.3228 6.55411 4.0872C6.47653 3.8516 6.26703 3.7338 5.92952 3.7338C5.3476 3.7338 5.05664 4.1024 5.05664 4.8434V6.9942H0.284889V5.4096C0.284889 3.6578 0.696113 2.4608 1.51468 1.811C2.33325 1.1612 3.75313 0.838196 5.77822 0.838196C7.64425 0.838196 9.05637 1.2334 10.0146 2.02C10.9728 2.8066 11.45 3.9618 11.45 5.478V14.6132H11.4423Z" fill="white"/>
<path id="Vector_2" d="M19.174 4.3532V10.3192C20.1749 10.3192 20.6754 9.79859 20.6754 8.7574V6.1544C20.6754 5.1056 20.8538 4.5052 21.2068 4.3494H25.8001C25.4471 4.851 25.2687 5.592 25.2687 6.5686V8.70799C25.2687 9.45659 24.9583 10.076 24.3337 10.57C24.1048 10.7562 23.6238 11.0184 22.8944 11.3566C22.4211 11.5808 21.8896 11.6986 21.3 11.7138C21.5754 11.7594 22.0914 11.8886 22.8479 12.0938C24.4773 12.603 25.2919 13.4922 25.2919 14.7652V17.4594C25.2919 18.4474 25.4704 19.1922 25.8234 19.6938H21.2301C20.8771 19.2226 20.6986 18.6222 20.6986 17.8888V14.6512C20.6986 13.61 20.1904 13.0894 19.174 13.0894V19.6938H14.4604V4.3532H19.174Z" fill="white"/>
<path id="Vector_3" d="M38.587 10.1482H34.0868V8.37739C34.0868 7.76179 34.0363 7.34379 33.9316 7.12339C33.8307 6.90299 33.6406 6.79279 33.3652 6.79279C33.0898 6.79279 32.9035 6.88779 32.8104 7.08159C32.7173 7.27539 32.6669 7.70479 32.6669 8.37739V15.6202C32.6669 16.1674 32.7367 16.5778 32.8803 16.8514C33.0238 17.125 33.2294 17.2618 33.5049 17.2618C33.8269 17.2618 34.048 17.1174 34.1605 16.8324C34.273 16.5474 34.3312 16.0078 34.3312 15.2136V13.3858H38.5831C38.5753 14.6132 38.5288 15.5328 38.4473 16.1446C38.3658 16.7564 38.102 17.3872 37.6559 18.0294C37.2098 18.6754 36.6317 19.158 35.914 19.4886C35.1963 19.8192 34.3118 19.9788 33.2566 19.9788C31.9104 19.9788 30.8435 19.7546 30.056 19.3024C29.2685 18.8502 28.7098 18.2194 28.384 17.4062C28.0581 16.593 27.8951 15.4378 27.8951 13.9406V9.57819C27.8951 8.27479 28.027 7.29059 28.2986 6.62939C28.5663 5.96439 29.1366 5.37539 30.0133 4.85479C30.8862 4.33419 31.9492 4.07199 33.2023 4.07199C34.4476 4.07199 35.5106 4.33039 36.3912 4.84719C37.2718 5.36399 37.8615 6.01759 38.1525 6.80419C38.4434 7.59079 38.587 8.70419 38.587 10.1482Z" fill="white"/>
<path id="Vector_4" d="M41.2134 19.7052V4.3494H52.3901V19.7052H47.6417V7.56799H45.9502V19.7052H41.2134Z" fill="white"/>
<path id="Vector_5" d="M66.1079 12.299H59.9318V15.6202C59.9318 16.3156 59.9822 16.7602 60.087 16.9616C60.1878 17.163 60.3857 17.2618 60.6766 17.2618C61.0374 17.2618 61.2819 17.1288 61.4021 16.8628C61.5224 16.5968 61.5845 16.0838 61.5845 15.32V13.2946H66.1079V14.427C66.1079 15.377 66.0458 16.1066 65.9256 16.612C65.8014 17.1212 65.5182 17.6646 65.0682 18.2422C64.6182 18.8198 64.0518 19.2568 63.3612 19.5456C62.6707 19.8344 61.8095 19.9788 60.7698 19.9788C59.7611 19.9788 58.8727 19.8344 58.1007 19.5494C57.3287 19.2644 56.7273 18.873 56.3006 18.3752C55.87 17.8774 55.5751 17.3302 55.4083 16.7336C55.2415 16.137 55.16 15.2668 55.16 14.123V9.65039C55.16 8.30899 55.3463 7.24879 55.7148 6.47359C56.0834 5.69839 56.6924 5.10559 57.5343 4.69139C58.3761 4.27719 59.346 4.07199 60.44 4.07199C61.7784 4.07199 62.8841 4.31899 63.7531 4.81679C64.6221 5.31459 65.235 5.97199 65.5842 6.79659C65.9333 7.61739 66.1118 8.77259 66.1118 10.2622V12.299H66.1079ZM61.3245 9.79859V8.67759C61.3245 7.88339 61.2819 7.37039 61.1965 7.13859C61.1112 6.90679 60.9327 6.79279 60.665 6.79279C60.3353 6.79279 60.1296 6.89159 60.0521 7.08919C59.9745 7.28679 59.9357 7.81499 59.9357 8.68139V9.80239H61.3245V9.79859Z" fill="white"/>
<path id="Vector_6" d="M73.735 4.34939L73.6536 5.70599C74.0803 5.15879 74.5458 4.74839 75.0579 4.47859C75.57 4.20879 76.1287 4.07199 76.7339 4.07199C77.4748 4.07199 78.115 4.26579 78.6542 4.65719C79.1935 5.04859 79.531 5.49699 79.6629 6.00619C79.7948 6.51539 79.8646 7.37799 79.8646 8.59779V15.0654C79.8646 16.46 79.7793 17.4556 79.6086 18.0446C79.4379 18.6336 79.0926 19.1048 78.5689 19.4544C78.0451 19.804 77.4128 19.9788 76.6718 19.9788C76.0821 19.9788 75.5351 19.842 75.0308 19.5722C74.5264 19.3024 74.0648 18.8996 73.6497 18.3676V21.8864H68.8779V4.34939H73.735ZM75.0928 8.81439C75.0928 7.86439 75.0579 7.29059 74.9881 7.08919C74.9183 6.88779 74.7204 6.78899 74.3984 6.78899C74.0842 6.78899 73.8825 6.90299 73.7893 7.13479C73.7001 7.36659 73.6536 7.92519 73.6536 8.81439V15.1794C73.6536 16.1066 73.7001 16.6842 73.7971 16.916C73.8902 17.1478 74.0958 17.2618 74.4101 17.2618C74.7165 17.2618 74.9066 17.1554 74.9842 16.9426C75.0579 16.7298 75.0967 16.2168 75.0967 15.3998V8.81439H75.0928Z" fill="white"/>
<path id="Vector_7" d="M94.4707 19.7052H90.3119V11.4098L86.9911 19.7052H82.6422V4.3494H86.801V12.5764L90.0598 4.3494H94.4668V19.7052H94.4707Z" fill="white"/>
<path id="Vector_8" d="M112.204 19.7052H108.115V9.1184L106.129 19.7052H103.518L101.462 9.1184V19.7052H97.3726V4.3494H103.289L104.817 12.8424L106.202 4.3494H112.2V19.7052H112.204Z" fill="white"/>
<path id="Vector_9" d="M125.926 12.299H119.749V15.6202C119.749 16.3156 119.8 16.7602 119.905 16.9616C120.005 17.163 120.203 17.2618 120.494 17.2618C120.855 17.2618 121.099 17.1288 121.22 16.8628C121.34 16.5968 121.402 16.0838 121.402 15.32V13.2946H125.926V14.427C125.926 15.377 125.863 16.1066 125.743 16.612C125.619 17.1212 125.336 17.6646 124.886 18.2422C124.436 18.8198 123.869 19.2568 123.179 19.5456C122.488 19.8344 121.627 19.9788 120.587 19.9788C119.579 19.9788 118.69 19.8344 117.918 19.5494C117.146 19.2644 116.545 18.873 116.118 18.3752C115.688 17.8774 115.393 17.3302 115.226 16.7336C115.059 16.137 114.978 15.2668 114.978 14.123V9.65039C114.978 8.30899 115.164 7.24879 115.532 6.47359C115.901 5.69839 116.51 5.10559 117.352 4.69139C118.194 4.27719 119.164 4.07199 120.258 4.07199C121.596 4.07199 122.702 4.31899 123.571 4.81679C124.44 5.31459 125.053 5.97199 125.402 6.79659C125.751 7.61739 125.929 8.77259 125.929 10.2622V12.299H125.926ZM121.142 9.79859V8.67759C121.142 7.88339 121.099 7.37039 121.014 7.13859C120.929 6.90679 120.75 6.79279 120.483 6.79279C120.153 6.79279 119.947 6.89159 119.87 7.08919C119.792 7.28679 119.753 7.81499 119.753 8.68139V9.80239H121.142V9.79859Z" fill="white"/>
<path id="Vector_10" d="M139.892 19.7052H135.143V14.047H133.428V19.7052H128.692V4.3494H133.428V9.867H135.143V4.3494H139.892V19.7052Z" fill="white"/>
<path id="Vector_11" d="M152.252 4.3494V7.56799H149.524V19.7052H144.764V7.56799H142.025V4.3494H152.252Z" fill="white"/>
<path id="Vector_12" d="M158.684 10.2964H154.207V9.26659C154.207 8.07719 154.347 7.16139 154.626 6.51919C154.905 5.87699 155.468 5.30699 156.31 4.81299C157.151 4.31899 158.245 4.07199 159.592 4.07199C161.205 4.07199 162.424 4.35319 163.242 4.91179C164.061 5.47039 164.553 6.15819 164.72 6.97139C164.887 7.78459 164.969 9.46039 164.969 11.9988V19.7052H160.325V18.3372C160.034 18.8844 159.658 19.2986 159.196 19.5722C158.734 19.8458 158.187 19.9826 157.547 19.9826C156.713 19.9826 155.945 19.7546 155.25 19.2948C154.552 18.835 154.207 17.8318 154.207 16.2814V15.0198C154.207 13.8722 154.393 13.0894 154.762 12.6714C155.13 12.2534 156.05 11.767 157.512 11.2122C159.08 10.6118 159.917 10.2052 160.03 9.99619C160.139 9.78719 160.197 9.36539 160.197 8.72319C160.197 7.92139 160.135 7.39699 160.014 7.15379C159.89 6.91059 159.689 6.78899 159.405 6.78899C159.083 6.78899 158.882 6.89159 158.804 7.09679C158.726 7.30199 158.688 7.83019 158.688 8.68899V10.2964H158.684ZM160.197 12.4016C159.433 12.9488 158.99 13.4086 158.866 13.7772C158.746 14.1458 158.684 14.6816 158.684 15.3732C158.684 16.1674 158.738 16.6804 158.843 16.9122C158.948 17.144 159.161 17.258 159.475 17.258C159.774 17.258 159.968 17.1668 160.061 16.9844C160.15 16.802 160.197 16.327 160.197 15.5556V12.4016Z" fill="white"/>
<path id="Vector_13" d="M177.27 4.3494V7.56799H174.543V19.7052H169.783V7.56799H167.044V4.3494H177.27Z" fill="white"/>
<path id="Vector_14" d="M190.232 9.74159V13.5036C190.232 14.883 190.162 15.8976 190.018 16.5398C189.875 17.1858 189.572 17.7862 189.11 18.3448C188.645 18.9034 188.048 19.3176 187.322 19.5836C186.593 19.8496 185.755 19.9826 184.812 19.9826C183.757 19.9826 182.865 19.8686 182.131 19.6406C181.398 19.4126 180.832 19.0706 180.424 18.6108C180.017 18.151 179.73 17.5962 179.555 16.9464C179.381 16.2966 179.295 15.3162 179.295 14.0128V10.076C179.295 8.64719 179.454 7.53379 179.769 6.73199C180.083 5.93019 180.649 5.28419 181.468 4.80159C182.286 4.31519 183.334 4.07199 184.61 4.07199C185.681 4.07199 186.6 4.22779 187.369 4.53939C188.137 4.85099 188.73 5.25759 189.145 5.75919C189.564 6.26079 189.848 6.77759 190.003 7.30959C190.158 7.84539 190.232 8.65479 190.232 9.74159ZM185.46 8.58639C185.46 7.79979 185.417 7.30199 185.332 7.10059C185.247 6.89539 185.06 6.79279 184.777 6.79279C184.494 6.79279 184.304 6.89539 184.211 7.10059C184.118 7.30579 184.067 7.79979 184.067 8.58639V15.5176C184.067 16.2434 184.114 16.7146 184.211 16.935C184.304 17.1554 184.49 17.2656 184.765 17.2656C185.049 17.2656 185.235 17.1668 185.328 16.9654C185.417 16.764 185.464 16.3346 185.464 15.6696V8.58639H185.46Z" fill="white"/>
<path id="Vector_15" d="M197.87 4.34939L197.789 5.70599C198.216 5.15879 198.681 4.74839 199.193 4.47859C199.705 4.20879 200.264 4.07199 200.869 4.07199C201.61 4.07199 202.25 4.26579 202.79 4.65719C203.329 5.04859 203.666 5.49699 203.798 6.00619C203.93 6.51539 204 7.37799 204 8.59779V15.0654C204 16.46 203.915 17.4556 203.744 18.0446C203.573 18.6336 203.228 19.1048 202.704 19.4544C202.181 19.804 201.548 19.9788 200.807 19.9788C200.217 19.9788 199.671 19.842 199.166 19.5722C198.662 19.3024 198.2 18.8996 197.785 18.3676V21.8864H193.013V4.34939H197.87ZM199.228 8.81439C199.228 7.86439 199.193 7.29059 199.123 7.08919C199.054 6.88779 198.856 6.78899 198.534 6.78899C198.22 6.78899 198.018 6.90299 197.925 7.13479C197.836 7.36659 197.789 7.92519 197.789 8.81439V15.1794C197.789 16.1066 197.835 16.6842 197.932 16.916C198.026 17.1478 198.231 17.2618 198.545 17.2618C198.852 17.2618 199.042 17.1554 199.12 16.9426C199.193 16.7298 199.232 16.2168 199.232 15.3998V8.81439H199.228Z" fill="white"/>
</g>
</g>
</svg>
