<svg width="85" height="38" viewBox="0 0 85 38" fill="none" xmlns="http://www.w3.org/2000/svg">
<path d="M42.4803 31.35C59.6551 31.35 73.5781 25.8207 73.5781 19C73.5781 12.1793 59.6551 6.64999 42.4803 6.64999C25.3054 6.64999 11.3824 12.1793 11.3824 19C11.3824 25.8207 25.3054 31.35 42.4803 31.35Z" fill="black"/>
<path d="M42.4802 29.83C48.5866 29.83 53.5367 24.9812 53.5367 19C53.5367 13.0188 48.5866 8.17 42.4802 8.17C36.3739 8.17 31.4237 13.0188 31.4237 19C31.4237 24.9812 36.3739 29.83 42.4802 29.83Z" fill="white"/>
<path d="M51.469 21.2382C51.2905 21.8766 50.8832 22.382 50.2469 22.7468C49.6805 23.0698 49.0288 23.2332 48.2994 23.2332H41.2155C37.0955 23.2332 35.0355 22.0172 35.0355 19.5814C35.0355 18.0196 35.7377 16.796 37.146 15.9068C38.3602 15.143 39.7995 14.7592 41.4716 14.7592H43.3143C44.3928 14.7592 45.3355 14.9226 46.1502 15.2456C47.2365 15.6788 47.8029 16.3324 47.8533 17.214C47.896 18.1032 47.4576 18.8404 46.542 19.4332H42.3328L43.7061 16.7542H41.0216L39.978 19.7562C39.9198 19.931 39.8887 20.0868 39.8887 20.2312C39.8887 20.9038 40.4396 21.242 41.5414 21.242H51.469V21.2382Z" fill="#FF1919"/>
<path d="M12.8174 32.0932L12.8172 32.0931C4.72297 28.5353 0.5 23.8442 0.5 19C0.5 14.1558 4.72297 9.46472 12.8172 5.90693L12.8174 5.90685C20.7262 2.42666 31.2564 0.5 42.4802 0.5C53.7041 0.5 64.2343 2.42666 72.1431 5.90685L72.1432 5.90693C80.2375 9.46472 84.4605 14.1558 84.4605 19C84.4605 23.8442 80.2375 28.5353 72.1432 32.0931L72.1431 32.0932C64.2343 35.5733 53.7041 37.5 42.4802 37.5C31.2564 37.5 20.7262 35.5733 12.8174 32.0932ZM42.4802 0.64C31.0383 0.64 20.6388 2.65073 13.0811 5.91744C9.30306 7.55043 6.21236 9.50712 4.05898 11.7041C1.90349 13.9032 0.663842 16.3695 0.663842 19C0.663842 21.6305 1.90349 24.0968 4.05898 26.2959C6.21236 28.4929 9.30306 30.4496 13.0811 32.0826C20.6388 35.3493 31.0383 37.36 42.4802 37.36C53.9222 37.36 64.3217 35.3493 71.8794 32.0826C75.6574 30.4496 78.7481 28.4929 80.9015 26.2959C83.057 24.0968 84.2966 21.6305 84.2966 19C84.2966 16.3695 83.057 13.9032 80.9015 11.7041C78.7481 9.50712 75.6574 7.55043 71.8794 5.91744C64.3217 2.65073 53.9222 0.64 42.4802 0.64Z" fill="#FF1919" stroke="black"/>
</svg>
