<svg width="204" height="22" viewBox="0 0 204 22" fill="none" xmlns="http://www.w3.org/2000/svg">
<path d="M11.4425 14.6132C11.4425 16.4182 10.9886 17.7406 10.0847 18.5804C9.18077 19.4202 7.78415 19.842 5.90261 19.842C3.9008 19.842 2.4654 19.4316 1.59251 18.6146C0.719632 17.7976 0.28125 16.3954 0.28125 14.4156V12.945H5.053V15.814C5.053 16.5702 5.32457 16.9464 5.8677 16.9464C6.25952 16.9464 6.49229 16.7982 6.566 16.5056C6.63971 16.213 6.67074 15.4986 6.67074 14.3662V11.2654H3.9202V8.5332H6.67074V5.3412C6.67074 4.7408 6.63195 4.3228 6.55436 4.0872C6.47677 3.8516 6.26728 3.7338 5.92976 3.7338C5.34784 3.7338 5.05688 4.1024 5.05688 4.8434V6.9942H0.285133V5.4096C0.285133 3.6578 0.696357 2.4608 1.51493 1.811C2.33349 1.1612 3.75338 0.838196 5.77846 0.838196C7.64449 0.838196 9.05662 1.2334 10.0148 2.02C10.9731 2.8066 11.4503 3.9618 11.4503 5.478V14.6132H11.4425Z" fill="black"/>
<path d="M19.1745 4.3532V10.3192C20.1754 10.3192 20.6759 9.79859 20.6759 8.7574V6.1544C20.6759 5.1056 20.8543 4.5052 21.2073 4.3494H25.8006C25.4476 4.851 25.2691 5.592 25.2691 6.5686V8.70799C25.2691 9.45659 24.9588 10.076 24.3342 10.57C24.1053 10.7562 23.6243 11.0184 22.8949 11.3566C22.4216 11.5808 21.8901 11.6986 21.3004 11.7138C21.5759 11.7594 22.0919 11.8886 22.8484 12.0938C24.4777 12.603 25.2924 13.4922 25.2924 14.7652V17.4594C25.2924 18.4474 25.4709 19.1922 25.8239 19.6938H21.2306C20.8776 19.2226 20.6991 18.6222 20.6991 17.8888V14.6512C20.6991 13.61 20.1909 13.0894 19.1745 13.0894V19.6938H14.4609V4.3532H19.1745Z" fill="black"/>
<path d="M38.5873 10.1482H34.0872V8.37739C34.0872 7.76179 34.0367 7.34379 33.932 7.12339C33.8311 6.90299 33.641 6.79279 33.3656 6.79279C33.0901 6.79279 32.9039 6.88779 32.8108 7.08159C32.7177 7.27539 32.6673 7.70479 32.6673 8.37739V15.6202C32.6673 16.1674 32.7371 16.5778 32.8806 16.8514C33.0242 17.125 33.2298 17.2618 33.5052 17.2618C33.8272 17.2618 34.0484 17.1174 34.1609 16.8324C34.2734 16.5474 34.3316 16.0078 34.3316 15.2136V13.3858H38.5835C38.5757 14.6132 38.5292 15.5328 38.4477 16.1446C38.3662 16.7564 38.1024 17.3872 37.6563 18.0294C37.2101 18.6754 36.6321 19.158 35.9144 19.4886C35.1967 19.8192 34.3122 19.9788 33.2569 19.9788C31.9108 19.9788 30.8439 19.7546 30.0564 19.3024C29.2688 18.8502 28.7102 18.2194 28.3843 17.4062C28.0584 16.593 27.8955 15.4378 27.8955 13.9406V9.57819C27.8955 8.27479 28.0274 7.29059 28.299 6.62939C28.5667 5.96439 29.1369 5.37539 30.0137 4.85479C30.8866 4.33419 31.9496 4.07199 33.2026 4.07199C34.4479 4.07199 35.5109 4.33039 36.3916 4.84719C37.2722 5.36399 37.8619 6.01759 38.1528 6.80419C38.4438 7.59079 38.5873 8.70419 38.5873 10.1482Z" fill="black"/>
<path d="M41.2139 19.7052V4.3494H52.3906V19.7052H47.6422V7.56799H45.9507V19.7052H41.2139Z" fill="black"/>
<path d="M66.108 12.299H59.9319V15.6202C59.9319 16.3156 59.9823 16.7602 60.0871 16.9616C60.188 17.163 60.3858 17.2618 60.6768 17.2618C61.0376 17.2618 61.282 17.1288 61.4022 16.8628C61.5225 16.5968 61.5846 16.0838 61.5846 15.32V13.2946H66.108V14.427C66.108 15.377 66.046 16.1066 65.9257 16.612C65.8016 17.1212 65.5184 17.6646 65.0683 18.2422C64.6183 18.8198 64.0519 19.2568 63.3614 19.5456C62.6708 19.8344 61.8096 19.9788 60.7699 19.9788C59.7612 19.9788 58.8728 19.8344 58.1008 19.5494C57.3288 19.2644 56.7275 18.873 56.3007 18.3752C55.8701 17.8774 55.5753 17.3302 55.4084 16.7336C55.2416 16.137 55.1602 15.2668 55.1602 14.123V9.65039C55.1602 8.30899 55.3464 7.24879 55.7149 6.47359C56.0835 5.69839 56.6926 5.10559 57.5344 4.69139C58.3763 4.27719 59.3461 4.07199 60.4401 4.07199C61.7785 4.07199 62.8842 4.31899 63.7532 4.81679C64.6222 5.31459 65.2352 5.97199 65.5843 6.79659C65.9335 7.61739 66.1119 8.77259 66.1119 10.2622V12.299H66.108ZM61.3246 9.79859V8.67759C61.3246 7.88339 61.282 7.37039 61.1966 7.13859C61.1113 6.90679 60.9328 6.79279 60.6651 6.79279C60.3354 6.79279 60.1298 6.89159 60.0522 7.08919C59.9746 7.28679 59.9358 7.81499 59.9358 8.68139V9.80239H61.3246V9.79859Z" fill="black"/>
<path d="M73.735 4.34939L73.6536 5.70599C74.0803 5.15879 74.5458 4.74839 75.0579 4.47859C75.57 4.20879 76.1287 4.07199 76.7339 4.07199C77.4748 4.07199 78.115 4.26579 78.6542 4.65719C79.1935 5.04859 79.531 5.49699 79.6629 6.00619C79.7948 6.51539 79.8646 7.37799 79.8646 8.59779V15.0654C79.8646 16.46 79.7793 17.4556 79.6086 18.0446C79.4379 18.6336 79.0926 19.1048 78.5689 19.4544C78.0451 19.804 77.4128 19.9788 76.6718 19.9788C76.0821 19.9788 75.5351 19.842 75.0308 19.5722C74.5264 19.3024 74.0648 18.8996 73.6497 18.3676V21.8864H68.8779V4.34939H73.735ZM75.0928 8.81439C75.0928 7.86439 75.0579 7.29059 74.9881 7.08919C74.9183 6.88779 74.7204 6.78899 74.3984 6.78899C74.0842 6.78899 73.8825 6.90299 73.7893 7.13479C73.7001 7.36659 73.6536 7.92519 73.6536 8.81439V15.1794C73.6536 16.1066 73.7001 16.6842 73.7971 16.916C73.8902 17.1478 74.0958 17.2618 74.4101 17.2618C74.7165 17.2618 74.9066 17.1554 74.9842 16.9426C75.0579 16.7298 75.0967 16.2168 75.0967 15.3998V8.81439H75.0928Z" fill="black"/>
<path d="M94.4711 19.7052H90.3123V11.4098L86.9915 19.7052H82.6426V4.3494H86.8014V12.5764L90.0601 4.3494H94.4672V19.7052H94.4711Z" fill="black"/>
<path d="M112.204 19.7052H108.115V9.1184L106.129 19.7052H103.518L101.462 9.1184V19.7052H97.373V4.3494H103.289L104.818 12.8424L106.203 4.3494H112.2V19.7052H112.204Z" fill="black"/>
<path d="M125.925 12.299H119.749V15.6202C119.749 16.3156 119.8 16.7602 119.904 16.9616C120.005 17.163 120.203 17.2618 120.494 17.2618C120.855 17.2618 121.099 17.1288 121.22 16.8628C121.34 16.5968 121.402 16.0838 121.402 15.32V13.2946H125.925V14.427C125.925 15.377 125.863 16.1066 125.743 16.612C125.619 17.1212 125.336 17.6646 124.886 18.2422C124.436 18.8198 123.869 19.2568 123.179 19.5456C122.488 19.8344 121.627 19.9788 120.587 19.9788C119.579 19.9788 118.69 19.8344 117.918 19.5494C117.146 19.2644 116.545 18.873 116.118 18.3752C115.687 17.8774 115.393 17.3302 115.226 16.7336C115.059 16.137 114.978 15.2668 114.978 14.123V9.65039C114.978 8.30899 115.164 7.24879 115.532 6.47359C115.901 5.69839 116.51 5.10559 117.352 4.69139C118.194 4.27719 119.163 4.07199 120.257 4.07199C121.596 4.07199 122.702 4.31899 123.571 4.81679C124.44 5.31459 125.053 5.97199 125.402 6.79659C125.751 7.61739 125.929 8.77259 125.929 10.2622V12.299H125.925ZM121.142 9.79859V8.67759C121.142 7.88339 121.099 7.37039 121.014 7.13859C120.929 6.90679 120.75 6.79279 120.483 6.79279C120.153 6.79279 119.947 6.89159 119.87 7.08919C119.792 7.28679 119.753 7.81499 119.753 8.68139V9.80239H121.142V9.79859Z" fill="black"/>
<path d="M139.891 19.7052H135.143V14.047H133.428V19.7052H128.691V4.3494H133.428V9.867H135.143V4.3494H139.891V19.7052Z" fill="black"/>
<path d="M152.252 4.3494V7.56799H149.524V19.7052H144.764V7.56799H142.025V4.3494H152.252Z" fill="black"/>
<path d="M158.684 10.2964H154.207V9.26659C154.207 8.07719 154.347 7.16139 154.626 6.51919C154.905 5.87699 155.468 5.30699 156.31 4.81299C157.152 4.31899 158.246 4.07199 159.592 4.07199C161.206 4.07199 162.424 4.35319 163.242 4.91179C164.061 5.47039 164.554 6.15819 164.72 6.97139C164.887 7.78459 164.969 9.46039 164.969 11.9988V19.7052H160.325V18.3372C160.034 18.8844 159.658 19.2986 159.196 19.5722C158.734 19.8458 158.187 19.9826 157.547 19.9826C156.713 19.9826 155.945 19.7546 155.251 19.2948C154.552 18.835 154.207 17.8318 154.207 16.2814V15.0198C154.207 13.8722 154.393 13.0894 154.762 12.6714C155.13 12.2534 156.05 11.767 157.512 11.2122C159.08 10.6118 159.918 10.2052 160.03 9.99619C160.139 9.78719 160.197 9.36539 160.197 8.72319C160.197 7.92139 160.135 7.39699 160.015 7.15379C159.89 6.91059 159.689 6.78899 159.406 6.78899C159.084 6.78899 158.882 6.89159 158.804 7.09679C158.727 7.30199 158.688 7.83019 158.688 8.68899V10.2964H158.684ZM160.197 12.4016C159.433 12.9488 158.99 13.4086 158.866 13.7772C158.746 14.1458 158.684 14.6816 158.684 15.3732C158.684 16.1674 158.738 16.6804 158.843 16.9122C158.948 17.144 159.161 17.258 159.475 17.258C159.774 17.258 159.968 17.1668 160.061 16.9844C160.15 16.802 160.197 16.327 160.197 15.5556V12.4016Z" fill="black"/>
<path d="M177.27 4.3494V7.56799H174.543V19.7052H169.783V7.56799H167.044V4.3494H177.27Z" fill="black"/>
<path d="M190.232 9.74159V13.5036C190.232 14.883 190.162 15.8976 190.019 16.5398C189.875 17.1858 189.573 17.7862 189.111 18.3448C188.645 18.9034 188.048 19.3176 187.323 19.5836C186.593 19.8496 185.755 19.9826 184.813 19.9826C183.757 19.9826 182.865 19.8686 182.132 19.6406C181.399 19.4126 180.832 19.0706 180.425 18.6108C180.017 18.151 179.73 17.5962 179.556 16.9464C179.381 16.2966 179.296 15.3162 179.296 14.0128V10.076C179.296 8.64719 179.455 7.53379 179.769 6.73199C180.083 5.93019 180.65 5.28419 181.468 4.80159C182.287 4.31519 183.334 4.07199 184.611 4.07199C185.682 4.07199 186.601 4.22779 187.369 4.53939C188.137 4.85099 188.731 5.25759 189.146 5.75919C189.565 6.26079 189.848 6.77759 190.003 7.30959C190.158 7.84539 190.232 8.65479 190.232 9.74159ZM185.46 8.58639C185.46 7.79979 185.418 7.30199 185.332 7.10059C185.247 6.89539 185.061 6.79279 184.778 6.79279C184.494 6.79279 184.304 6.89539 184.211 7.10059C184.118 7.30579 184.068 7.79979 184.068 8.58639V15.5176C184.068 16.2434 184.114 16.7146 184.211 16.935C184.304 17.1554 184.491 17.2656 184.766 17.2656C185.049 17.2656 185.235 17.1668 185.328 16.9654C185.418 16.764 185.464 16.3346 185.464 15.6696V8.58639H185.46Z" fill="black"/>
<path d="M197.871 4.34939L197.789 5.70599C198.216 5.15879 198.682 4.74839 199.194 4.47859C199.706 4.20879 200.264 4.07199 200.87 4.07199C201.611 4.07199 202.251 4.26579 202.79 4.65719C203.329 5.04859 203.667 5.49699 203.799 6.00619C203.931 6.51539 204 7.37799 204 8.59779V15.0654C204 16.46 203.915 17.4556 203.744 18.0446C203.574 18.6336 203.228 19.1048 202.705 19.4544C202.181 19.804 201.549 19.9788 200.808 19.9788C200.218 19.9788 199.671 19.842 199.167 19.5722C198.662 19.3024 198.201 18.8996 197.785 18.3676V21.8864H193.014V4.34939H197.871ZM199.229 8.81439C199.229 7.86439 199.194 7.29059 199.124 7.08919C199.054 6.88779 198.856 6.78899 198.534 6.78899C198.22 6.78899 198.018 6.90299 197.925 7.13479C197.836 7.36659 197.789 7.92519 197.789 8.81439V15.1794C197.789 16.1066 197.836 16.6842 197.933 16.916C198.026 17.1478 198.232 17.2618 198.546 17.2618C198.852 17.2618 199.042 17.1554 199.12 16.9426C199.194 16.7298 199.232 16.2168 199.232 15.3998V8.81439H199.229Z" fill="black"/>
</svg>
