<svg width="0" height="0" class="hidden">
  <symbol xmlns="http://www.w3.org/2000/svg" viewBox="0 0 7 12" id="ic_arr_hor">
    <path d="M0.46967 6.53033C0.176777 6.23744 0.176777 5.76256 0.46967 5.46967L5.24264 0.696699C5.53553 0.403806 6.01041 0.403806 6.3033 0.696699C6.59619 0.989592 6.59619 1.46447 6.3033 1.75736L2.06066 6L6.3033 10.2426C6.59619 10.5355 6.59619 11.0104 6.3033 11.3033C6.01041 11.5962 5.53553 11.5962 5.24264 11.3033L0.46967 6.53033ZM2 6.75H1V5.25H2V6.75Z" fill="currentColor"></path>
  </symbol>
  <symbol xmlns="http://www.w3.org/2000/svg" viewBox="0 0 56 16" id="ic_arrow_hor">
    <path d="M55.7071 8.70711C56.0976 8.31658 56.0976 7.68342 55.7071 7.29289L49.3431 0.928932C48.9526 0.538408 48.3195 0.538408 47.9289 0.928932C47.5384 1.31946 47.5384 1.95262 47.9289 2.34315L53.5858 8L47.9289 13.6569C47.5384 14.0474 47.5384 14.6805 47.9289 15.0711C48.3195 15.4616 48.9526 15.4616 49.3431 15.0711L55.7071 8.70711ZM0 9H55V7H0V9Z" fill="currentColor"></path>
  </symbol>
  <symbol xmlns="http://www.w3.org/2000/svg" viewBox="0 0 30 30" id="ic_download">
    <path d="M0 0V3.70258H29.6206V0H0ZM14.8103 7.40515L3.70258 18.5129H11.1077V29.6206H18.5129V18.5129H25.918L14.8103 7.40515Z" fill="currentColor"></path>
  </symbol>
  <symbol xmlns="http://www.w3.org/2000/svg" viewBox="0 0 21 17" id="ic_email">
    <path d="M1.55984 0.233992L8.87238 8.75798C9.29488 9.22596 9.87988 9.52681 10.5299 9.52681C11.1474 9.52681 11.7649 9.25939 12.1874 8.75798L19.3699 0.367701C19.4349 0.300847 19.4999 0.233992 19.5649 0.200564C19.2399 0.0668548 18.8824 0 18.5574 0H2.46985C2.14485 0 1.81985 0.0668548 1.52734 0.200564L1.55984 0.233992Z" fill="currentColor"></path>
    <path d="M20.6376 1.20331C20.6051 1.27016 20.5726 1.37045 20.5076 1.4373L13.3251 9.82758C12.6101 10.6298 11.6026 11.1312 10.4975 11.1312C9.42504 11.1312 8.38504 10.6633 7.70253 9.82758L0.390002 1.30359C0.390002 1.27016 0.357502 1.27016 0.357502 1.23674C0.130001 1.63786 0 2.07242 0 2.5404V14.0729C0 15.4768 1.105 16.6133 2.47001 16.6133H18.5251C19.8901 16.6133 20.9951 15.4768 20.9951 14.0729V2.5404C21.0276 2.03899 20.8976 1.60444 20.6376 1.20331Z" fill="currentColor"></path>
  </symbol>
  <symbol xmlns="http://www.w3.org/2000/svg" viewBox="0 0 32 37" id="ic_file">
    <path d="M0 0V36.5714H32V18.2857H13.7143V0H0ZM18.2857 0V13.7143H32L18.2857 0ZM4.57143 9.14286H9.14286V13.7143H4.57143V9.14286ZM4.57143 18.2857H9.14286V22.8571H4.57143V18.2857ZM4.57143 27.4286H22.8571V32H4.57143V27.4286Z" fill="currentColor"></path>
  </symbol>
  <symbol xmlns="http://www.w3.org/2000/svg" viewBox="0 0 35 21" id="ic_menu">
    <rect width="35" height="5" fill="currentColor"></rect>
    <rect y="8" width="35" height="5" fill="currentColor"></rect>
    <rect y="16" width="35" height="5" fill="currentColor"></rect>
  </symbol>
  <symbol xmlns="http://www.w3.org/2000/svg" viewBox="0 0 21 21" id="ic_phone">
    <path d="M10.1494 14.7997L6.20038 10.8506C5.75749 10.4077 5.75749 9.74341 6.20038 9.30053L9.66962 5.83129L3.94906 0.147632C3.76452 -0.036902 3.46927 -0.036902 3.32164 0.147632C-1.2179 5.01934 -1.10718 12.6221 3.6538 17.3831C8.37788 22.1072 16.0176 22.2179 20.8893 17.7153C21.0738 17.5308 21.0738 17.2724 20.8893 17.0879L15.1687 11.3304L11.6995 14.7997C11.2935 15.2056 10.5923 15.2056 10.1494 14.7997Z" fill="currentColor"></path>
  </symbol>
</svg>